<svg width="29" height="24" viewBox="0 0 29 24" fill="none" xmlns="http://www.w3.org/2000/svg">
<path fill-rule="evenodd" clip-rule="evenodd" d="M1 2C1 1.44772 1.44772 1 2 1H5C5.38569 1 5.73701 1.22181 5.90284 1.57003L7.06008 4H22C22.3033 4 22.5902 4.13767 22.78 4.37427C22.9698 4.61087 23.042 4.92083 22.9762 5.21693L20.9762 14.2169C20.8818 14.6416 20.5238 14.9565 20.0905 14.9959L9.09054 15.9959C8.60215 16.0403 8.15363 15.724 8.0315 15.249L5.48429 5.34267L4.36863 3H2C1.44772 3 1 2.55228 1 2ZM7.71837 6L9.75665 13.9271L19.1822 13.0702L20.7534 6H7.71837Z" fill="white"/>
<path fill-rule="evenodd" clip-rule="evenodd" d="M8 23C9.65685 23 11 21.6569 11 20C11 18.3431 9.65685 17 8 17C6.34315 17 5 18.3431 5 20C5 21.6569 6.34315 23 8 23ZM8 21C8.55228 21 9 20.5523 9 20C9 19.4477 8.55228 19 8 19C7.44772 19 7 19.4477 7 20C7 20.5523 7.44772 21 8 21Z" fill="white"/>
<path fill-rule="evenodd" clip-rule="evenodd" d="M22 20C22 21.6569 20.6569 23 19 23C17.3431 23 16 21.6569 16 20C16 18.3431 17.3431 17 19 17C20.6569 17 22 18.3431 22 20ZM20 20C20 20.5523 19.5523 21 19 21C18.4477 21 18 20.5523 18 20C18 19.4477 18.4477 19 19 19C19.5523 19 20 19.4477 20 20Z" fill="white"/>
<rect x="15" y="2" width="14" height="14" rx="7" fill="#111113"/>
<path d="M19.7014 12H24.1514V10.84H21.6914L23.4014 8.61C23.8014 8.08 24.0014 7.53 24.0014 6.95C24.0014 5.74 23.2214 4.92 21.9114 4.92C20.7614 4.92 19.8714 5.72 19.8114 6.78L20.9714 7C21.0514 6.41 21.3714 6.08 21.8814 6.08C22.4414 6.08 22.7414 6.43 22.7414 7C22.7414 7.41 22.6014 7.76 22.2014 8.27L19.7014 11.5V12Z" fill="white"/>
</svg>
