<svg width="20" height="20" viewBox="0 0 20 20" fill="none" xmlns="http://www.w3.org/2000/svg">
<path d="M13.7503 2.5C12.3003 2.5 10.9087 3.175 10.0003 4.24167C9.09199 3.175 7.70033 2.5 6.25033 2.5C3.68366 2.5 1.66699 4.51667 1.66699 7.08333C1.66699 10.2333 4.50033 12.8 8.79199 16.7L9.32739 17.1837C9.7092 17.5287 10.2905 17.5276 10.671 17.1812L11.2087 16.6917C15.5003 12.8 18.3337 10.2333 18.3337 7.08333C18.3337 4.51667 16.317 2.5 13.7503 2.5ZM10.0837 15.4583L10.0003 15.5417L9.91699 15.4583C5.95033 11.8667 3.33366 9.49167 3.33366 7.08333C3.33366 5.41667 4.58366 4.16667 6.25033 4.16667C7.26332 4.16667 8.25554 4.68069 8.84584 5.45874C9.1287 5.83158 9.53384 6.13333 10.0018 6.13333V6.13333C10.4725 6.13333 10.8792 5.82807 11.1633 5.45289C11.7501 4.67812 12.7399 4.16667 13.7503 4.16667C15.417 4.16667 16.667 5.41667 16.667 7.08333C16.667 9.49167 14.0503 11.8667 10.0837 15.4583Z" fill="#B2ACA0"/>
</svg>
