<svg width="40" height="40" viewBox="0 0 40 40" fill="none" xmlns="http://www.w3.org/2000/svg">
<path d="M0 20C0 8.95431 8.95431 0 20 0V0C31.0457 0 40 8.95431 40 20V20C40 31.0457 31.0457 40 20 40V40C8.95431 40 0 31.0457 0 20V20Z" fill="white"/>
<path d="M23.7503 12.5C22.3003 12.5 20.9087 13.175 20.0003 14.2417C19.092 13.175 17.7003 12.5 16.2503 12.5C13.6837 12.5 11.667 14.5167 11.667 17.0833C11.667 20.2333 14.5003 22.8 18.792 26.7L19.3274 27.1837C19.7092 27.5287 20.2905 27.5276 20.671 27.1812L21.2087 26.6917C25.5003 22.8 28.3337 20.2333 28.3337 17.0833C28.3337 14.5167 26.317 12.5 23.7503 12.5ZM20.0837 25.4583L20.0003 25.5417L19.917 25.4583C15.9503 21.8667 13.3337 19.4917 13.3337 17.0833C13.3337 15.4167 14.5837 14.1667 16.2503 14.1667C17.2633 14.1667 18.2555 14.6807 18.8458 15.4587C19.1287 15.8316 19.5338 16.1333 20.0018 16.1333V16.1333C20.4725 16.1333 20.8792 15.8281 21.1633 15.4529C21.7501 14.6781 22.7399 14.1667 23.7503 14.1667C25.417 14.1667 26.667 15.4167 26.667 17.0833C26.667 19.4917 24.0503 21.8667 20.0837 25.4583Z" fill="#B2ACA0"/>
<path d="M20 39C9.50659 39 1 30.4934 1 20H-1C-1 31.598 8.40202 41 20 41V39ZM39 20C39 30.4934 30.4934 39 20 39V41C31.598 41 41 31.598 41 20H39ZM20 1C30.4934 1 39 9.50659 39 20H41C41 8.40202 31.598 -1 20 -1V1ZM20 -1C8.40202 -1 -1 8.40202 -1 20H1C1 9.50659 9.50659 1 20 1V-1Z" fill="#111113" fill-opacity="0.1"/>
</svg>
