<svg width="24" height="24" viewBox="0 0 24 24" fill="none" xmlns="http://www.w3.org/2000/svg">
<path fill-rule="evenodd" clip-rule="evenodd" d="M10.1875 3.06201C6.25247 3.06201 3.0625 6.25198 3.0625 10.187C3.0625 14.122 6.25247 17.312 10.1875 17.312C14.1225 17.312 17.3125 14.122 17.3125 10.187C17.3125 6.25198 14.1225 3.06201 10.1875 3.06201ZM1 10.187C1 5.1129 5.11338 0.999512 10.1875 0.999512C15.2616 0.999512 19.375 5.1129 19.375 10.187C19.375 12.3525 18.6258 14.3431 17.3724 15.9135L22.698 21.2391C23.1007 21.6418 23.1007 22.2947 22.698 22.6975C22.2952 23.1002 21.6423 23.1002 21.2395 22.6975L15.914 17.372C14.3436 18.6253 12.353 19.3745 10.1875 19.3745C5.11338 19.3745 1 15.2611 1 10.187Z" fill="white"/>
</svg>
